<svg xmlns="http://www.w3.org/2000/svg" xmlns:xlink="http://www.w3.org/1999/xlink" x="0" y="0" width="702" height="492" style="
        width:702px;
        height:492px;
        background: #FFF;
        fill: none;
">
        
        
        <svg xmlns="http://www.w3.org/2000/svg" class="role-diagram-draw-area" style="overflow: visible;"><g class="shapes-region" style="stroke: black; fill: none;"><g class="composite-shape" data-amt="diagram/shapes/plot" transform="matrix(1,0,0,1,17,23)"><g><g><g class="test-xgi"><line x1="26.370556257075616" y1="0" x2="26.370556257075616" y2="436.5" fill="none" stroke="#c3c3c3" stroke-width="0.5"/><line x1="83.38979816117269" y1="0" x2="83.38979816117269" y2="436.5" fill="none" stroke="#c3c3c3" stroke-width="0.5"/><line x1="140.40904006526975" y1="0" x2="140.40904006526975" y2="436.5" fill="none" stroke="#c3c3c3" stroke-width="0.5"/><line x1="197.42828196936682" y1="0" x2="197.42828196936682" y2="436.5" fill="none" stroke="#c3c3c3" stroke-width="0.5"/><line x1="254.44752387346392" y1="0" x2="254.44752387346392" y2="436.5" fill="none" stroke="#c3c3c3" stroke-width="0.5"/><line x1="311.466765777561" y1="0" x2="311.466765777561" y2="436.5" fill="none" stroke="#c3c3c3" stroke-width="0.5"/><line x1="368.48600768165807" y1="0" x2="368.48600768165807" y2="436.5" fill="none" stroke="#c3c3c3" stroke-width="0.5"/><line x1="425.5052495857551" y1="0" x2="425.5052495857551" y2="436.5" fill="none" stroke="#c3c3c3" stroke-width="0.5"/><line x1="482.5244914898522" y1="0" x2="482.5244914898522" y2="436.5" fill="none" stroke="#c3c3c3" stroke-width="0.5"/></g><g class="test-ygi"><line x1="0" y1="387.26151666490296" x2="514" y2="387.26151666490296" fill="none" stroke="#c3c3c3" stroke-width="0.5"/><line x1="0" y1="330.24227476080586" x2="514" y2="330.24227476080586" fill="none" stroke="#c3c3c3" stroke-width="0.5"/><line x1="0" y1="273.2230328567088" x2="514" y2="273.2230328567088" fill="none" stroke="#c3c3c3" stroke-width="0.5"/><line x1="0" y1="216.20379095261177" x2="514" y2="216.20379095261177" fill="none" stroke="#c3c3c3" stroke-width="0.5"/><line x1="0" y1="159.18454904851473" x2="514" y2="159.18454904851473" fill="none" stroke="#c3c3c3" stroke-width="0.5"/><line x1="0" y1="102.16530714441762" x2="514" y2="102.16530714441762" fill="none" stroke="#c3c3c3" stroke-width="0.5"/><line x1="0" y1="45.14606524032058" x2="514" y2="45.14606524032058" fill="none" stroke="#c3c3c3" stroke-width="0.5"/></g></g><g><g class="test-xti" style="font-family: Asana-Math, Asana;"><line x1="0" y1="387.26151666490296" x2="510" y2="387.26151666490296" fill="none" stroke="rgb(0,0,0)" stroke-opacity="1" stroke-width="1"/><line x1="26.370556257075616" y1="383.26151666490296" x2="26.370556257075616" y2="391.26151666490296" fill="none" stroke="rgb(0,0,0)" stroke-opacity="1" stroke-width="1"/><line x1="83.38979816117269" y1="383.26151666490296" x2="83.38979816117269" y2="391.26151666490296" fill="none" stroke="rgb(0,0,0)" stroke-opacity="1" stroke-width="1"/><line x1="197.42828196936682" y1="383.26151666490296" x2="197.42828196936682" y2="391.26151666490296" fill="none" stroke="rgb(0,0,0)" stroke-opacity="1" stroke-width="1"/><line x1="254.44752387346392" y1="383.26151666490296" x2="254.44752387346392" y2="391.26151666490296" fill="none" stroke="rgb(0,0,0)" stroke-opacity="1" stroke-width="1"/><line x1="311.466765777561" y1="383.26151666490296" x2="311.466765777561" y2="391.26151666490296" fill="none" stroke="rgb(0,0,0)" stroke-opacity="1" stroke-width="1"/><line x1="368.48600768165807" y1="383.26151666490296" x2="368.48600768165807" y2="391.26151666490296" fill="none" stroke="rgb(0,0,0)" stroke-opacity="1" stroke-width="1"/><line x1="425.5052495857551" y1="383.26151666490296" x2="425.5052495857551" y2="391.26151666490296" fill="none" stroke="rgb(0,0,0)" stroke-opacity="1" stroke-width="1"/><line x1="482.5244914898522" y1="383.26151666490296" x2="482.5244914898522" y2="391.26151666490296" fill="none" stroke="rgb(0,0,0)" stroke-opacity="1" stroke-width="1"/><path d="M505,383.66151666490293 L513,387.26151666490296 L505,390.861516664903 Z" stroke="none" stroke-width="1" fill="rgb(0,0,0)" fill-opacity="1"/></g><g class="test-yti" style="font-family: Asana-Math, Asana;"><line x1="140.40904006526975" y1="4" x2="140.40904006526975" y2="436.5" fill="none" stroke="rgb(50,50,50)" stroke-opacity="1" stroke-width="1"/><line x1="136.40904006526975" y1="330.24227476080586" x2="144.40904006526975" y2="330.24227476080586" fill="none" stroke="rgb(50,50,50)" stroke-opacity="1" stroke-width="1"/><line x1="136.40904006526975" y1="273.2230328567088" x2="144.40904006526975" y2="273.2230328567088" fill="none" stroke="rgb(50,50,50)" stroke-opacity="1" stroke-width="1"/><line x1="136.40904006526975" y1="216.20379095261177" x2="144.40904006526975" y2="216.20379095261177" fill="none" stroke="rgb(50,50,50)" stroke-opacity="1" stroke-width="1"/><line x1="136.40904006526975" y1="159.18454904851473" x2="144.40904006526975" y2="159.18454904851473" fill="none" stroke="rgb(50,50,50)" stroke-opacity="1" stroke-width="1"/><line x1="136.40904006526975" y1="102.16530714441762" x2="144.40904006526975" y2="102.16530714441762" fill="none" stroke="rgb(50,50,50)" stroke-opacity="1" stroke-width="1"/><line x1="136.40904006526975" y1="45.14606524032058" x2="144.40904006526975" y2="45.14606524032058" fill="none" stroke="rgb(50,50,50)" stroke-opacity="1" stroke-width="1"/><path d="M136.80904006526976,9 L140.40904006526975,1 L144.00904006526974,9 Z" stroke="none" stroke-width="1" fill="rgb(50,50,50)" fill-opacity="1"/></g><g class="test-plot-expression"><defs><clipPath id="cpkwl7uya8gdg-full-view"><rect x="1" y="1" width="512" height="434.5"/></clipPath></defs><g clip-path="url(#cpkwl7uya8gdg-full-view)"><g><path d="M193.42828196936682,326.24227476080586 L201.42828196936682,334.24227476080586 M201.42828196936682,326.24227476080586 L193.42828196936682,334.24227476080586" style="stroke-width: 2; stroke: rgb(0, 0, 0); stroke-opacity: 1; fill: none; fill-opacity: 0.15;"/><path d="M250.4475238734639,41.146065240320524 L258.44752387346387,49.146065240320524 M258.44752387346387,41.146065240320524 L250.4475238734639,49.146065240320524" style="stroke-width: 2; stroke: rgb(0, 0, 0); stroke-opacity: 1; fill: none; fill-opacity: 0.15;"/><path d="M307.46676577756097,155.18454904851467 L315.46676577756097,163.18454904851467 M315.46676577756097,155.18454904851467 L307.46676577756097,163.18454904851467" style="stroke-width: 2; stroke: rgb(0, 0, 0); stroke-opacity: 1; fill: none; fill-opacity: 0.15;"/><path d="M364.486007681658,269.2230328567088 L372.486007681658,277.2230328567088 M372.486007681658,269.2230328567088 L364.486007681658,277.2230328567088" style="stroke-width: 2; stroke: rgb(0, 0, 0); stroke-opacity: 1; fill: none; fill-opacity: 0.15;"/><path d="M478.52449148985215,98.16530714441762 L486.52449148985215,106.16530714441762 M486.52449148985215,98.16530714441762 L478.52449148985215,106.16530714441762" style="stroke-width: 2; stroke: rgb(0, 0, 0); stroke-opacity: 1; fill: none; fill-opacity: 0.15;"/></g><path d=" M0.00,299.80 L0.50,299.61 L1.00,299.43 L1.50,299.25 L2.00,299.07 L2.50,298.88 L3.00,298.70 L3.50,298.52 L4.00,298.34 L4.50,298.15 L5.00,297.97 L5.51,297.79 L6.01,297.61 L6.51,297.42 L7.01,297.24 L7.51,297.06 L8.01,296.87 L8.51,296.69 L9.01,296.51 L9.51,296.33 L10.01,296.14 L10.51,295.96 L11.01,295.78 L11.51,295.60 L12.01,295.41 L12.51,295.23 L13.01,295.05 L13.51,294.87 L14.01,294.68 L14.51,294.50 L15.01,294.32 L15.52,294.14 L16.02,293.95 L16.52,293.77 L17.02,293.59 L17.52,293.41 L18.02,293.22 L18.52,293.04 L19.02,292.86 L19.52,292.67 L20.02,292.49 L20.52,292.31 L21.02,292.13 L21.52,291.94 L22.02,291.76 L22.52,291.58 L23.02,291.40 L23.52,291.21 L24.02,291.03 L24.52,290.85 L25.02,290.67 L25.52,290.48 L26.03,290.30 L26.53,290.12 L27.03,289.94 L27.53,289.75 L28.03,289.57 L28.53,289.39 L29.03,289.21 L29.53,289.02 L30.03,288.84 L30.53,288.66 L31.03,288.47 L31.53,288.29 L32.03,288.11 L32.53,287.93 L33.03,287.74 L33.53,287.56 L34.03,287.38 L34.53,287.20 L35.03,287.01 L35.53,286.83 L36.04,286.65 L36.54,286.47 L37.04,286.28 L37.54,286.10 L38.04,285.92 L38.54,285.74 L39.04,285.55 L39.54,285.37 L40.04,285.19 L40.54,285.00 L41.04,284.82 L41.54,284.64 L42.04,284.46 L42.54,284.27 L43.04,284.09 L43.54,283.91 L44.04,283.73 L44.54,283.54 L45.04,283.36 L45.54,283.18 L46.04,283.00 L46.55,282.81 L47.05,282.63 L47.55,282.45 L48.05,282.27 L48.55,282.08 L49.05,281.90 L49.55,281.72 L50.05,281.54 L50.55,281.35 L51.05,281.17 L51.55,280.99 L52.05,280.80 L52.55,280.62 L53.05,280.44 L53.55,280.26 L54.05,280.07 L54.55,279.89 L55.05,279.71 L55.55,279.53 L56.05,279.34 L56.56,279.16 L57.06,278.98 L57.56,278.80 L58.06,278.61 L58.56,278.43 L59.06,278.25 L59.56,278.07 L60.06,277.88 L60.56,277.70 L61.06,277.52 L61.56,277.34 L62.06,277.15 L62.56,276.97 L63.06,276.79 L63.56,276.60 L64.06,276.42 L64.56,276.24 L65.06,276.06 L65.56,275.87 L66.06,275.69 L66.56,275.51 L67.07,275.33 L67.57,275.14 L68.07,274.96 L68.57,274.78 L69.07,274.60 L69.57,274.41 L70.07,274.23 L70.57,274.05 L71.07,273.87 L71.57,273.68 L72.07,273.50 L72.57,273.32 L73.07,273.14 L73.57,272.95 L74.07,272.77 L74.57,272.59 L75.07,272.40 L75.57,272.22 L76.07,272.04 L76.57,271.86 L77.07,271.67 L77.58,271.49 L78.08,271.31 L78.58,271.13 L79.08,270.94 L79.58,270.76 L80.08,270.58 L80.58,270.40 L81.08,270.21 L81.58,270.03 L82.08,269.85 L82.58,269.67 L83.08,269.48 L83.58,269.30 L84.08,269.12 L84.58,268.94 L85.08,268.75 L85.58,268.57 L86.08,268.39 L86.58,268.20 L87.08,268.02 L87.59,267.84 L88.09,267.66 L88.59,267.47 L89.09,267.29 L89.59,267.11 L90.09,266.93 L90.59,266.74 L91.09,266.56 L91.59,266.38 L92.09,266.20 L92.59,266.01 L93.09,265.83 L93.59,265.65 L94.09,265.47 L94.59,265.28 L95.09,265.10 L95.59,264.92 L96.09,264.74 L96.59,264.55 L97.09,264.37 L97.59,264.19 L98.10,264.00 L98.60,263.82 L99.10,263.64 L99.60,263.46 L100.10,263.27 L100.60,263.09 L101.10,262.91 L101.60,262.73 L102.10,262.54 L102.60,262.36 L103.10,262.18 L103.60,262.00 L104.10,261.81 L104.60,261.63 L105.10,261.45 L105.60,261.27 L106.10,261.08 L106.60,260.90 L107.10,260.72 L107.60,260.54 L108.11,260.35 L108.61,260.17 L109.11,259.99 L109.61,259.80 L110.11,259.62 L110.61,259.44 L111.11,259.26 L111.61,259.07 L112.11,258.89 L112.61,258.71 L113.11,258.53 L113.61,258.34 L114.11,258.16 L114.61,257.98 L115.11,257.80 L115.61,257.61 L116.11,257.43 L116.61,257.25 L117.11,257.07 L117.61,256.88 L118.11,256.70 L118.62,256.52 L119.12,256.34 L119.62,256.15 L120.12,255.97 L120.62,255.79 L121.12,255.60 L121.62,255.42 L122.12,255.24 L122.62,255.06 L123.12,254.87 L123.62,254.69 L124.12,254.51 L124.62,254.33 L125.12,254.14 L125.62,253.96 L126.12,253.78 L126.62,253.60 L127.12,253.41 L127.62,253.23 L128.12,253.05 L128.63,252.87 L129.13,252.68 L129.63,252.50 L130.13,252.32 L130.63,252.14 L131.13,251.95 L131.63,251.77 L132.13,251.59 L132.63,251.40 L133.13,251.22 L133.63,251.04 L134.13,250.86 L134.63,250.67 L135.13,250.49 L135.63,250.31 L136.13,250.13 L136.63,249.94 L137.13,249.76 L137.63,249.58 L138.13,249.40 L138.63,249.21 L139.14,249.03 L139.64,248.85 L140.14,248.67 L140.64,248.48 L141.14,248.30 L141.64,248.12 L142.14,247.94 L142.64,247.75 L143.14,247.57 L143.64,247.39 L144.14,247.20 L144.64,247.02 L145.14,246.84 L145.64,246.66 L146.14,246.47 L146.64,246.29 L147.14,246.11 L147.64,245.93 L148.14,245.74 L148.64,245.56 L149.15,245.38 L149.65,245.20 L150.15,245.01 L150.65,244.83 L151.15,244.65 L151.65,244.47 L152.15,244.28 L152.65,244.10 L153.15,243.92 L153.65,243.74 L154.15,243.55 L154.65,243.37 L155.15,243.19 L155.65,243.00 L156.15,242.82 L156.65,242.64 L157.15,242.46 L157.65,242.27 L158.15,242.09 L158.65,241.91 L159.15,241.73 L159.66,241.54 L160.16,241.36 L160.66,241.18 L161.16,241.00 L161.66,240.81 L162.16,240.63 L162.66,240.45 L163.16,240.27 L163.66,240.08 L164.16,239.90 L164.66,239.72 L165.16,239.54 L165.66,239.35 L166.16,239.17 L166.66,238.99 L167.16,238.80 L167.66,238.62 L168.16,238.44 L168.66,238.26 L169.16,238.07 L169.67,237.89 L170.17,237.71 L170.67,237.53 L171.17,237.34 L171.67,237.16 L172.17,236.98 L172.67,236.80 L173.17,236.61 L173.67,236.43 L174.17,236.25 L174.67,236.07 L175.17,235.88 L175.67,235.70 L176.17,235.52 L176.67,235.34 L177.17,235.15 L177.67,234.97 L178.17,234.79 L178.67,234.60 L179.17,234.42 L179.67,234.24 L180.18,234.06 L180.68,233.87 L181.18,233.69 L181.68,233.51 L182.18,233.33 L182.68,233.14 L183.18,232.96 L183.68,232.78 L184.18,232.60 L184.68,232.41 L185.18,232.23 L185.68,232.05 L186.18,231.87 L186.68,231.68 L187.18,231.50 L187.68,231.32 L188.18,231.14 L188.68,230.95 L189.18,230.77 L189.68,230.59 L190.19,230.40 L190.69,230.22 L191.19,230.04 L191.69,229.86 L192.19,229.67 L192.69,229.49 L193.19,229.31 L193.69,229.13 L194.19,228.94 L194.69,228.76 L195.19,228.58 L195.69,228.40 L196.19,228.21 L196.69,228.03 L197.19,227.85 L197.69,227.67 L198.19,227.48 L198.69,227.30 L199.19,227.12 L199.69,226.93 L200.19,226.75 L200.70,226.57 L201.20,226.39 L201.70,226.20 L202.20,226.02 L202.70,225.84 L203.20,225.66 L203.70,225.47 L204.20,225.29 L204.70,225.11 L205.20,224.93 L205.70,224.74 L206.20,224.56 L206.70,224.38 L207.20,224.20 L207.70,224.01 L208.20,223.83 L208.70,223.65 L209.20,223.47 L209.70,223.28 L210.20,223.10 L210.70,222.92 L211.21,222.73 L211.71,222.55 L212.21,222.37 L212.71,222.19 L213.21,222.00 L213.71,221.82 L214.21,221.64 L214.71,221.46 L215.21,221.27 L215.71,221.09 L216.21,220.91 L216.71,220.73 L217.21,220.54 L217.71,220.36 L218.21,220.18 L218.71,220.00 L219.21,219.81 L219.71,219.63 L220.21,219.45 L220.71,219.27 L221.22,219.08 L221.72,218.90 L222.22,218.72 L222.72,218.53 L223.22,218.35 L223.72,218.17 L224.22,217.99 L224.72,217.80 L225.22,217.62 L225.72,217.44 L226.22,217.26 L226.72,217.07 L227.22,216.89 L227.72,216.71 L228.22,216.53 L228.72,216.34 L229.22,216.16 L229.72,215.98 L230.22,215.80 L230.72,215.61 L231.22,215.43 L231.73,215.25 L232.23,215.07 L232.73,214.88 L233.23,214.70 L233.73,214.52 L234.23,214.33 L234.73,214.15 L235.23,213.97 L235.73,213.79 L236.23,213.60 L236.73,213.42 L237.23,213.24 L237.73,213.06 L238.23,212.87 L238.73,212.69 L239.23,212.51 L239.73,212.33 L240.23,212.14 L240.73,211.96 L241.23,211.78 L241.74,211.60 L242.24,211.41 L242.74,211.23 L243.24,211.05 L243.74,210.87 L244.24,210.68 L244.74,210.50 L245.24,210.32 L245.74,210.13 L246.24,209.95 L246.74,209.77 L247.24,209.59 L247.74,209.40 L248.24,209.22 L248.74,209.04 L249.24,208.86 L249.74,208.67 L250.24,208.49 L250.74,208.31 L251.24,208.13 L251.74,207.94 L252.25,207.76 L252.75,207.58 L253.25,207.40 L253.75,207.21 L254.25,207.03 L254.75,206.85 L255.25,206.67 L255.75,206.48 L256.25,206.30 L256.75,206.12 L257.25,205.93 L257.75,205.75 L258.25,205.57 L258.75,205.39 L259.25,205.20 L259.75,205.02 L260.25,204.84 L260.75,204.66 L261.25,204.47 L261.75,204.29 L262.26,204.11 L262.76,203.93 L263.26,203.74 L263.76,203.56 L264.26,203.38 L264.76,203.20 L265.26,203.01 L265.76,202.83 L266.26,202.65 L266.76,202.47 L267.26,202.28 L267.76,202.10 L268.26,201.92 L268.76,201.73 L269.26,201.55 L269.76,201.37 L270.26,201.19 L270.76,201.00 L271.26,200.82 L271.76,200.64 L272.26,200.46 L272.77,200.27 L273.27,200.09 L273.77,199.91 L274.27,199.73 L274.77,199.54 L275.27,199.36 L275.77,199.18 L276.27,199.00 L276.77,198.81 L277.27,198.63 L277.77,198.45 L278.27,198.27 L278.77,198.08 L279.27,197.90 L279.77,197.72 L280.27,197.53 L280.77,197.35 L281.27,197.17 L281.77,196.99 L282.27,196.80 L282.78,196.62 L283.28,196.44 L283.78,196.26 L284.28,196.07 L284.78,195.89 L285.28,195.71 L285.78,195.53 L286.28,195.34 L286.78,195.16 L287.28,194.98 L287.78,194.80 L288.28,194.61 L288.78,194.43 L289.28,194.25 L289.78,194.07 L290.28,193.88 L290.78,193.70 L291.28,193.52 L291.78,193.33 L292.28,193.15 L292.78,192.97 L293.29,192.79 L293.79,192.60 L294.29,192.42 L294.79,192.24 L295.29,192.06 L295.79,191.87 L296.29,191.69 L296.79,191.51 L297.29,191.33 L297.79,191.14 L298.29,190.96 L298.79,190.78 L299.29,190.60 L299.79,190.41 L300.29,190.23 L300.79,190.05 L301.29,189.87 L301.79,189.68 L302.29,189.50 L302.79,189.32 L303.30,189.13 L303.80,188.95 L304.30,188.77 L304.80,188.59 L305.30,188.40 L305.80,188.22 L306.30,188.04 L306.80,187.86 L307.30,187.67 L307.80,187.49 L308.30,187.31 L308.80,187.13 L309.30,186.94 L309.80,186.76 L310.30,186.58 L310.80,186.40 L311.30,186.21 L311.80,186.03 L312.30,185.85 L312.80,185.67 L313.30,185.48 L313.81,185.30 L314.31,185.12 L314.81,184.93 L315.31,184.75 L315.81,184.57 L316.31,184.39 L316.81,184.20 L317.31,184.02 L317.81,183.84 L318.31,183.66 L318.81,183.47 L319.31,183.29 L319.81,183.11 L320.31,182.93 L320.81,182.74 L321.31,182.56 L321.81,182.38 L322.31,182.20 L322.81,182.01 L323.31,181.83 L323.81,181.65 L324.32,181.47 L324.82,181.28 L325.32,181.10 L325.82,180.92 L326.32,180.73 L326.82,180.55 L327.32,180.37 L327.82,180.19 L328.32,180.00 L328.82,179.82 L329.32,179.64 L329.82,179.46 L330.32,179.27 L330.82,179.09 L331.32,178.91 L331.82,178.73 L332.32,178.54 L332.82,178.36 L333.32,178.18 L333.82,178.00 L334.33,177.81 L334.83,177.63 L335.33,177.45 L335.83,177.27 L336.33,177.08 L336.83,176.90 L337.33,176.72 L337.83,176.53 L338.33,176.35 L338.83,176.17 L339.33,175.99 L339.83,175.80 L340.33,175.62 L340.83,175.44 L341.33,175.26 L341.83,175.07 L342.33,174.89 L342.83,174.71 L343.33,174.53 L343.83,174.34 L344.33,174.16 L344.84,173.98 L345.34,173.80 L345.84,173.61 L346.34,173.43 L346.84,173.25 L347.34,173.07 L347.84,172.88 L348.34,172.70 L348.84,172.52 L349.34,172.33 L349.84,172.15 L350.34,171.97 L350.84,171.79 L351.34,171.60 L351.84,171.42 L352.34,171.24 L352.84,171.06 L353.34,170.87 L353.84,170.69 L354.34,170.51 L354.85,170.33 L355.35,170.14 L355.85,169.96 L356.35,169.78 L356.85,169.60 L357.35,169.41 L357.85,169.23 L358.35,169.05 L358.85,168.86 L359.35,168.68 L359.85,168.50 L360.35,168.32 L360.85,168.13 L361.35,167.95 L361.85,167.77 L362.35,167.59 L362.85,167.40 L363.35,167.22 L363.85,167.04 L364.35,166.86 L364.85,166.67 L365.36,166.49 L365.86,166.31 L366.36,166.13 L366.86,165.94 L367.36,165.76 L367.86,165.58 L368.36,165.40 L368.86,165.21 L369.36,165.03 L369.86,164.85 L370.36,164.66 L370.86,164.48 L371.36,164.30 L371.86,164.12 L372.36,163.93 L372.86,163.75 L373.36,163.57 L373.86,163.39 L374.36,163.20 L374.86,163.02 L375.37,162.84 L375.87,162.66 L376.37,162.47 L376.87,162.29 L377.37,162.11 L377.87,161.93 L378.37,161.74 L378.87,161.56 L379.37,161.38 L379.87,161.20 L380.37,161.01 L380.87,160.83 L381.37,160.65 L381.87,160.46 L382.37,160.28 L382.87,160.10 L383.37,159.92 L383.87,159.73 L384.37,159.55 L384.87,159.37 L385.37,159.19 L385.88,159.00 L386.38,158.82 L386.88,158.64 L387.38,158.46 L387.88,158.27 L388.38,158.09 L388.88,157.91 L389.38,157.73 L389.88,157.54 L390.38,157.36 L390.88,157.18 L391.38,157.00 L391.88,156.81 L392.38,156.63 L392.88,156.45 L393.38,156.26 L393.88,156.08 L394.38,155.90 L394.88,155.72 L395.38,155.53 L395.89,155.35 L396.39,155.17 L396.89,154.99 L397.39,154.80 L397.89,154.62 L398.39,154.44 L398.89,154.26 L399.39,154.07 L399.89,153.89 L400.39,153.71 L400.89,153.53 L401.39,153.34 L401.89,153.16 L402.39,152.98 L402.89,152.80 L403.39,152.61 L403.89,152.43 L404.39,152.25 L404.89,152.06 L405.39,151.88 L405.89,151.70 L406.40,151.52 L406.90,151.33 L407.40,151.15 L407.90,150.97 L408.40,150.79 L408.90,150.60 L409.40,150.42 L409.90,150.24 L410.40,150.06 L410.90,149.87 L411.40,149.69 L411.90,149.51 L412.40,149.33 L412.90,149.14 L413.40,148.96 L413.90,148.78 L414.40,148.60 L414.90,148.41 L415.40,148.23 L415.90,148.05 L416.41,147.86 L416.91,147.68 L417.41,147.50 L417.91,147.32 L418.41,147.13 L418.91,146.95 L419.41,146.77 L419.91,146.59 L420.41,146.40 L420.91,146.22 L421.41,146.04 L421.91,145.86 L422.41,145.67 L422.91,145.49 L423.41,145.31 L423.91,145.13 L424.41,144.94 L424.91,144.76 L425.41,144.58 L425.91,144.40 L426.41,144.21 L426.92,144.03 L427.42,143.85 L427.92,143.66 L428.42,143.48 L428.92,143.30 L429.42,143.12 L429.92,142.93 L430.42,142.75 L430.92,142.57 L431.42,142.39 L431.92,142.20 L432.42,142.02 L432.92,141.84 L433.42,141.66 L433.92,141.47 L434.42,141.29 L434.92,141.11 L435.42,140.93 L435.92,140.74 L436.42,140.56 L436.93,140.38 L437.43,140.20 L437.93,140.01 L438.43,139.83 L438.93,139.65 L439.43,139.46 L439.93,139.28 L440.43,139.10 L440.93,138.92 L441.43,138.73 L441.93,138.55 L442.43,138.37 L442.93,138.19 L443.43,138.00 L443.93,137.82 L444.43,137.64 L444.93,137.46 L445.43,137.27 L445.93,137.09 L446.43,136.91 L446.93,136.73 L447.44,136.54 L447.94,136.36 L448.44,136.18 L448.94,136.00 L449.44,135.81 L449.94,135.63 L450.44,135.45 L450.94,135.26 L451.44,135.08 L451.94,134.90 L452.44,134.72 L452.94,134.53 L453.44,134.35 L453.94,134.17 L454.44,133.99 L454.94,133.80 L455.44,133.62 L455.94,133.44 L456.44,133.26 L456.94,133.07 L457.44,132.89 L457.95,132.71 L458.45,132.53 L458.95,132.34 L459.45,132.16 L459.95,131.98 L460.45,131.80 L460.95,131.61 L461.45,131.43 L461.95,131.25 L462.45,131.06 L462.95,130.88 L463.45,130.70 L463.95,130.52 L464.45,130.33 L464.95,130.15 L465.45,129.97 L465.95,129.79 L466.45,129.60 L466.95,129.42 L467.45,129.24 L467.96,129.06 L468.46,128.87 L468.96,128.69 L469.46,128.51 L469.96,128.33 L470.46,128.14 L470.96,127.96 L471.46,127.78 L471.96,127.60 L472.46,127.41 L472.96,127.23 L473.46,127.05 L473.96,126.86 L474.46,126.68 L474.96,126.50 L475.46,126.32 L475.96,126.13 L476.46,125.95 L476.96,125.77 L477.46,125.59 L477.96,125.40 L478.47,125.22 L478.97,125.04 L479.47,124.86 L479.97,124.67 L480.47,124.49 L480.97,124.31 L481.47,124.13 L481.97,123.94 L482.47,123.76 L482.97,123.58 L483.47,123.40 L483.97,123.21 L484.47,123.03 L484.97,122.85 L485.47,122.66 L485.97,122.48 L486.47,122.30 L486.97,122.12 L487.47,121.93 L487.97,121.75 L488.48,121.57 L488.98,121.39 L489.48,121.20 L489.98,121.02 L490.48,120.84 L490.98,120.66 L491.48,120.47 L491.98,120.29 L492.48,120.11 L492.98,119.93 L493.48,119.74 L493.98,119.56 L494.48,119.38 L494.98,119.20 L495.48,119.01 L495.98,118.83 L496.48,118.65 L496.98,118.46 L497.48,118.28 L497.98,118.10 L498.48,117.92 L498.99,117.73 L499.49,117.55 L499.99,117.37 L500.49,117.19 L500.99,117.00 L501.49,116.82 L501.99,116.64 L502.49,116.46 L502.99,116.27 L503.49,116.09 L503.99,115.91 L504.49,115.73 L504.99,115.54 L505.49,115.36 L505.99,115.18 L506.49,114.99 L506.99,114.81 L507.49,114.63 L507.99,114.45 L508.49,114.26 L509.00,114.08 L509.50,113.90 L510.00,113.72 L510.50,113.53 L511.00,113.35 L511.50,113.17 L512.00,112.99 L512.50,112.80 L513.00,112.62 L513.50,112.44 L514.00,112.26" style="stroke-width: 2; stroke: rgb(0, 0, 0); stroke-opacity: 0.8;"/></g></g><g class="test-xtl" style="font-family: &quot;Open Sans&quot;, verdana, arial, sans-serif;"><text text-anchor="middle" font-size="11" dominant-baseline="hanging" stroke="none" fill="rgb(0,0,0)" fill-opacity="1" x="23.235556257075615" y="394.26151666490296">-2</text><text text-anchor="middle" font-size="11" dominant-baseline="hanging" stroke="none" fill="rgb(0,0,0)" fill-opacity="1" x="80.25479816117269" y="394.26151666490296">-1</text><text text-anchor="middle" font-size="11" dominant-baseline="hanging" stroke="none" fill="rgb(0,0,0)" fill-opacity="1" x="197.42828196936682" y="394.26151666490296">1</text><text text-anchor="middle" font-size="11" dominant-baseline="hanging" stroke="none" fill="rgb(0,0,0)" fill-opacity="1" x="254.44752387346392" y="394.26151666490296">2</text><text text-anchor="middle" font-size="11" dominant-baseline="hanging" stroke="none" fill="rgb(0,0,0)" fill-opacity="1" x="311.466765777561" y="394.26151666490296">3</text><text text-anchor="middle" font-size="11" dominant-baseline="hanging" stroke="none" fill="rgb(0,0,0)" fill-opacity="1" x="368.48600768165807" y="394.26151666490296">4</text><text text-anchor="middle" font-size="11" dominant-baseline="hanging" stroke="none" fill="rgb(0,0,0)" fill-opacity="1" x="425.5052495857551" y="394.26151666490296">5</text><text text-anchor="middle" font-size="11" dominant-baseline="hanging" stroke="none" fill="rgb(0,0,0)" fill-opacity="1" x="482.5244914898522" y="394.26151666490296">6</text><text text-anchor="middle" font-size="11" dominant-baseline="hanging" stroke="none" fill="rgb(0,0,0)" fill-opacity="1" x="132.40904006526975" y="392.26151666490296">0</text></g><g class="test-ytl" style="font-family: &quot;Open Sans&quot;, verdana, arial, sans-serif;"><text text-anchor="end" dominant-baseline="middle" font-size="11" stroke="none" fill="rgb(0,0,0)" fill-opacity="1" x="132.40904006526975" y="330.24227476080586">1</text><text text-anchor="end" dominant-baseline="middle" font-size="11" stroke="none" fill="rgb(0,0,0)" fill-opacity="1" x="132.40904006526975" y="273.2230328567088">2</text><text text-anchor="end" dominant-baseline="middle" font-size="11" stroke="none" fill="rgb(0,0,0)" fill-opacity="1" x="132.40904006526975" y="216.20379095261177">3</text><text text-anchor="end" dominant-baseline="middle" font-size="11" stroke="none" fill="rgb(0,0,0)" fill-opacity="1" x="132.40904006526975" y="159.18454904851473">4</text><text text-anchor="end" dominant-baseline="middle" font-size="11" stroke="none" fill="rgb(0,0,0)" fill-opacity="1" x="132.40904006526975" y="102.16530714441762">5</text><text text-anchor="end" dominant-baseline="middle" font-size="11" stroke="none" fill="rgb(0,0,0)" fill-opacity="1" x="132.40904006526975" y="45.14606524032058">6</text></g><rect class="real" x="1" y="1" width="512" height="434.5" style="fill: transparent; stroke: none;"/></g></g></g><g class="composite-shape"><path class="real" d=" M111,68 L272,68 L272,229 L111,229 Z" style="stroke-width: 1; stroke: rgb(208, 2, 27); stroke-opacity: 1; fill: rgb(255, 46, 46); fill-opacity: 0.51;"/></g><g class="composite-shape"><path class="real" d=" M316,251 L215,251 L215,352 L316,352 Z" style="stroke-width: 1; stroke: rgb(184, 233, 134); stroke-opacity: 1; fill: rgb(184, 233, 134); fill-opacity: 0.5;"/></g><g class="arrow-line"><path class="connection real" stroke-dasharray="" d="  M272,68 L272,229" style="stroke: rgb(253, 1, 1); stroke-opacity: 1; stroke-width: 1; fill: none; fill-opacity: 1;"/></g><g class="composite-shape"><path class="real" d=" M479,124 L501,124 L501,146 L479,146 Z" style="stroke-width: 1; stroke: rgb(189, 16, 224); stroke-opacity: 1; fill: rgb(189, 16, 224); fill-opacity: 0.48;"/></g><g class="composite-shape"><path class="real" d=" M302,182 L329,182 L329,209 L302,209 Z" style="stroke-width: 1; stroke: rgb(80, 227, 194); stroke-opacity: 1; fill: rgb(80, 227, 194); fill-opacity: 0.6;"/></g><g class="composite-shape"><path class="real" d=" M386,188 L494,188 L494,296 L386,296 Z" style="stroke-width: 1; stroke: rgb(74, 144, 226); stroke-opacity: 1; fill: rgb(74, 144, 226); fill-opacity: 0.72;"/></g><g/></g><g/><g/><g/></svg>
        <svg xmlns="http://www.w3.org/2000/svg" xmlns:xlink="http://www.w3.org/1999/xlink" width="700" height="490" style="width:700px;height:490px;font-family:Asana-Math, Asana;background:#FFF;"></svg>
</svg>
